<svg width="100" height="100" viewBox="0 0 100 100" fill="none" xmlns="http://www.w3.org/2000/svg">
<rect x="0.5" y="0.5" width="99" height="99" stroke="black"/>
<path d="M41.2805 56.6705H44.8601L46.9801 59.419L48.4929 61.2088L52.1257 65.875H48.2905L45.8189 62.7429L44.7642 61.2514L41.2805 56.6705ZM52.6477 53.0909C52.6477 55.4418 52.2074 57.4553 51.3267 59.1314C50.4531 60.8004 49.2599 62.0788 47.7472 62.9666C46.2415 63.8544 44.5334 64.2983 42.6229 64.2983C40.7124 64.2983 39.0007 63.8544 37.4879 62.9666C35.9822 62.0717 34.7891 60.7898 33.9084 59.1207C33.0348 57.4446 32.598 55.4347 32.598 53.0909C32.598 50.7401 33.0348 48.7301 33.9084 47.0611C34.7891 45.3849 35.9822 44.103 37.4879 43.2152C39.0007 42.3274 40.7124 41.8835 42.6229 41.8835C44.5334 41.8835 46.2415 42.3274 47.7472 43.2152C49.2599 44.103 50.4531 45.3849 51.3267 47.0611C52.2074 48.7301 52.6477 50.7401 52.6477 53.0909ZM48.674 53.0909C48.674 51.4361 48.4148 50.0405 47.8963 48.9041C47.3849 47.7607 46.6747 46.8977 45.7656 46.3153C44.8565 45.7259 43.8089 45.4311 42.6229 45.4311C41.4368 45.4311 40.3892 45.7259 39.4801 46.3153C38.571 46.8977 37.8572 47.7607 37.3388 48.9041C36.8274 50.0405 36.5717 51.4361 36.5717 53.0909C36.5717 54.7457 36.8274 56.1449 37.3388 57.2884C37.8572 58.4247 38.571 59.2876 39.4801 59.8771C40.3892 60.4595 41.4368 60.7507 42.6229 60.7507C43.8089 60.7507 44.8565 60.4595 45.7656 59.8771C46.6747 59.2876 47.3849 58.4247 47.8963 57.2884C48.4148 56.1449 48.674 54.7457 48.674 53.0909ZM59.8441 57.8636V57.7358C59.8583 56.3793 60.0004 55.2997 60.2702 54.4972C60.5401 53.6946 60.9237 53.0447 61.4208 52.5476C61.918 52.0504 62.5146 51.5923 63.2106 51.1733C63.6296 50.9176 64.006 50.6158 64.3398 50.2678C64.6737 49.9126 64.9364 49.5043 65.1282 49.0426C65.3271 48.581 65.4265 48.0696 65.4265 47.5085C65.4265 46.8125 65.2631 46.2088 64.9364 45.6974C64.6097 45.1861 64.1729 44.7919 63.6261 44.5149C63.0792 44.2379 62.4719 44.0994 61.8043 44.0994C61.2219 44.0994 60.6609 44.2202 60.1211 44.4616C59.5813 44.7031 59.1303 45.0831 58.7681 45.6016C58.4059 46.12 58.1964 46.7983 58.1396 47.6364H55.4549C55.5117 46.429 55.8242 45.3956 56.3924 44.5362C56.9677 43.6768 57.7241 43.0199 58.6616 42.5653C59.6062 42.1108 60.6538 41.8835 61.8043 41.8835C63.0543 41.8835 64.141 42.1321 65.0643 42.6293C65.9947 43.1264 66.712 43.8082 67.2163 44.6747C67.7276 45.5412 67.9833 46.5284 67.9833 47.6364C67.9833 48.4176 67.8626 49.1243 67.6211 49.7564C67.3867 50.3885 67.0458 50.9531 66.5984 51.4503C66.158 51.9474 65.6254 52.3878 65.0004 52.7713C64.3754 53.1619 63.8746 53.5739 63.4982 54.0071C63.1218 54.4332 62.8484 54.9411 62.6779 55.5305C62.5075 56.12 62.4151 56.8551 62.4009 57.7358V57.8636H59.8441ZM61.2077 64.1705C60.6822 64.1705 60.2312 63.9822 59.8548 63.6058C59.4783 63.2294 59.2901 62.7784 59.2901 62.2528C59.2901 61.7273 59.4783 61.2763 59.8548 60.8999C60.2312 60.5234 60.6822 60.3352 61.2077 60.3352C61.7333 60.3352 62.1843 60.5234 62.5607 60.8999C62.9371 61.2763 63.1254 61.7273 63.1254 62.2528C63.1254 62.6009 63.0366 62.9205 62.859 63.2116C62.6886 63.5028 62.4577 63.7372 62.1665 63.9148C61.8825 64.0852 61.5629 64.1705 61.2077 64.1705Z" fill="black"/>
<path d="M44 39C32 20.5 10.4998 43.5 12.9999 56C15.4999 68.5 27.5 71 27.5 71L35 83.5V71H75.9998C93.4998 71 96.4998 39.5 71.4998 33.5C62.4998 10.5001 33.9999 19.4944 30.9999 30.4944" stroke="black" stroke-width="2"/>
</svg>
