<svg width="100" height="100" viewBox="0 0 100 100" fill="none" xmlns="http://www.w3.org/2000/svg">
<rect x="0.5" y="0.5" width="99" height="99" stroke="black"/>
<line x1="53.3104" y1="17.608" x2="77.3103" y2="36.608" stroke="black"/>
<line x1="53.3104" y1="17.608" x2="77.3103" y2="36.608" stroke="black"/>
<line x1="22.6896" y1="36.609" x2="46.6888" y2="17.608" stroke="black"/>
<line x1="51.6896" y1="81.609" x2="75.6888" y2="62.608" stroke="black"/>
<line x1="22.6896" y1="57.609" x2="46.6888" y2="38.608" stroke="black"/>
<line x1="51.6896" y1="58.609" x2="75.6888" y2="39.608" stroke="black"/>
<line x1="23.3104" y1="62.608" x2="47.3104" y2="81.608" stroke="black"/>
<line x1="52.3104" y1="38.608" x2="76.3103" y2="57.608" stroke="black"/>
<line x1="23.3104" y1="39.608" x2="47.3104" y2="58.608" stroke="black"/>
<line x1="21.5" y1="40" x2="21.5" y2="57" stroke="black"/>
<line x1="78.5" y1="41" x2="78.5" y2="58" stroke="black"/>
<line x1="49.5" y1="19" x2="49.5" y2="36" stroke="black"/>
<line x1="49.5" y1="63" x2="49.5" y2="80" stroke="black"/>
<line x1="49.5" y1="41" x2="49.5" y2="58" stroke="black"/>
<line x1="75.2023" y1="37.4573" x2="23.2023" y2="60.4573" stroke="black"/>
<line x1="74.7977" y1="60.4572" x2="22.7977" y2="37.4574" stroke="black"/>
<circle cx="22.5" cy="37.5" r="7.5" fill="white" stroke="black" stroke-width="2"/>
<circle cx="49.5" cy="37.5" r="7.5" fill="white" stroke="black" stroke-width="2"/>
<circle cx="76.5" cy="37.5" r="7.5" fill="white" stroke="black" stroke-width="2"/>
<circle cx="76.5" cy="60.5" r="7.5" fill="white" stroke="black" stroke-width="2"/>
<circle cx="49.5" cy="60.5" r="7.5" fill="white" stroke="black" stroke-width="2"/>
<circle cx="49.5" cy="83.5" r="7.5" fill="white" stroke="black" stroke-width="2"/>
<circle cx="22.5" cy="60.5" r="7.5" fill="white" stroke="black" stroke-width="2"/>
<circle cx="49.5" cy="15.5" r="7.5" fill="white" stroke="black" stroke-width="2"/>
</svg>
