<svg width="100" height="100" viewBox="0 0 100 100" fill="none" xmlns="http://www.w3.org/2000/svg">
<rect x="0.5" y="0.5" width="99" height="99" stroke="black"/>
<mask id="path-2-inside-1_8_190" fill="white">
<path fill-rule="evenodd" clip-rule="evenodd" d="M32 23V30H15V23H32ZM14 30V23H11V30H14ZM10 30V23V22H11H14H15H32H33H50H51H68H69H86H87V23V30V31V38V39V46V47V54V55V62V63V70V71V76V77H86H69H68H51H50H33H32H15H14H11H10V76V71V70V63V62V55V54V47V46V39V38V31V30ZM11 62H14V55H11V62ZM15 62H32V55H15V62ZM33 62H50V55H33V62ZM51 62H68V55H51V62ZM69 62H86V55H69V62ZM11 71V76H14V71H11ZM15 71V76H32V71H15ZM32 70H15V63H32V70ZM33 71V76H50V71H33ZM50 70H33V63H50V70ZM51 71V76H68V71H51ZM68 70H51V63H68V70ZM69 71V76H86V71H69ZM86 70H69V63H86V70ZM14 63V70H11V63H14ZM86 47V54H69V47H86ZM68 47V54H51V47H68ZM50 47V54H33V47H50ZM32 47V54H15V47H32ZM14 47V54H11V47H14ZM11 46H14V39H11V46ZM15 46H32V39H15V46ZM33 46H50V39H33V46ZM51 46H68V39H51V46ZM69 46H86V39H69V46ZM86 31V38H69V31H86ZM68 31V38H51V31H68ZM50 31V38H33V31H50ZM32 31V38H15V31H32ZM14 31V38H11V31H14ZM86 30V23H69V30H86ZM68 30V23H51V30H68ZM50 30V23H33V30H50Z"/>
</mask>
<path fill-rule="evenodd" clip-rule="evenodd" d="M32 23V30H15V23H32ZM14 30V23H11V30H14ZM10 30V23V22H11H14H15H32H33H50H51H68H69H86H87V23V30V31V38V39V46V47V54V55V62V63V70V71V76V77H86H69H68H51H50H33H32H15H14H11H10V76V71V70V63V62V55V54V47V46V39V38V31V30ZM11 62H14V55H11V62ZM15 62H32V55H15V62ZM33 62H50V55H33V62ZM51 62H68V55H51V62ZM69 62H86V55H69V62ZM11 71V76H14V71H11ZM15 71V76H32V71H15ZM32 70H15V63H32V70ZM33 71V76H50V71H33ZM50 70H33V63H50V70ZM51 71V76H68V71H51ZM68 70H51V63H68V70ZM69 71V76H86V71H69ZM86 70H69V63H86V70ZM14 63V70H11V63H14ZM86 47V54H69V47H86ZM68 47V54H51V47H68ZM50 47V54H33V47H50ZM32 47V54H15V47H32ZM14 47V54H11V47H14ZM11 46H14V39H11V46ZM15 46H32V39H15V46ZM33 46H50V39H33V46ZM51 46H68V39H51V46ZM69 46H86V39H69V46ZM86 31V38H69V31H86ZM68 31V38H51V31H68ZM50 31V38H33V31H50ZM32 31V38H15V31H32ZM14 31V38H11V31H14ZM86 30V23H69V30H86ZM68 30V23H51V30H68ZM50 30V23H33V30H50Z" fill="black"/>
<path d="M32 30V31H33V30H32ZM32 23H33V22H32V23ZM15 30H14V31H15V30ZM15 23V22H14V23H15ZM14 23H15V22H14V23ZM14 30V31H15V30H14ZM11 23V22H10V23H11ZM11 30H10V31H11V30ZM10 22V21H9V22H10ZM87 22H88V21H87V22ZM87 77V78H88V77H87ZM10 77H9V78H10V77ZM14 62V63H15V62H14ZM11 62H10V63H11V62ZM14 55H15V54H14V55ZM11 55V54H10V55H11ZM32 62V63H33V62H32ZM15 62H14V63H15V62ZM32 55H33V54H32V55ZM15 55V54H14V55H15ZM50 62V63H51V62H50ZM33 62H32V63H33V62ZM50 55H51V54H50V55ZM33 55V54H32V55H33ZM68 62V63H69V62H68ZM51 62H50V63H51V62ZM68 55H69V54H68V55ZM51 55V54H50V55H51ZM86 62V63H87V62H86ZM69 62H68V63H69V62ZM86 55H87V54H86V55ZM69 55V54H68V55H69ZM11 71V70H10V71H11ZM11 76H10V77H11V76ZM14 76V77H15V76H14ZM14 71H15V70H14V71ZM15 76H14V77H15V76ZM15 71V70H14V71H15ZM32 76V77H33V76H32ZM32 71H33V70H32V71ZM15 70H14V71H15V70ZM32 70V71H33V70H32ZM15 63V62H14V63H15ZM32 63H33V62H32V63ZM33 76H32V77H33V76ZM33 71V70H32V71H33ZM50 76V77H51V76H50ZM50 71H51V70H50V71ZM33 70H32V71H33V70ZM50 70V71H51V70H50ZM33 63V62H32V63H33ZM50 63H51V62H50V63ZM51 76H50V77H51V76ZM51 71V70H50V71H51ZM68 76V77H69V76H68ZM68 71H69V70H68V71ZM51 70H50V71H51V70ZM68 70V71H69V70H68ZM51 63V62H50V63H51ZM68 63H69V62H68V63ZM69 76H68V77H69V76ZM69 71V70H68V71H69ZM86 76V77H87V76H86ZM86 71H87V70H86V71ZM69 70H68V71H69V70ZM86 70V71H87V70H86ZM69 63V62H68V63H69ZM86 63H87V62H86V63ZM14 70V71H15V70H14ZM14 63H15V62H14V63ZM11 70H10V71H11V70ZM11 63V62H10V63H11ZM86 54V55H87V54H86ZM86 47H87V46H86V47ZM69 54H68V55H69V54ZM69 47V46H68V47H69ZM68 54V55H69V54H68ZM68 47H69V46H68V47ZM51 54H50V55H51V54ZM51 47V46H50V47H51ZM50 54V55H51V54H50ZM50 47H51V46H50V47ZM33 54H32V55H33V54ZM33 47V46H32V47H33ZM32 54V55H33V54H32ZM32 47H33V46H32V47ZM15 54H14V55H15V54ZM15 47V46H14V47H15ZM14 54V55H15V54H14ZM14 47H15V46H14V47ZM11 54H10V55H11V54ZM11 47V46H10V47H11ZM14 46V47H15V46H14ZM11 46H10V47H11V46ZM14 39H15V38H14V39ZM11 39V38H10V39H11ZM32 46V47H33V46H32ZM15 46H14V47H15V46ZM32 39H33V38H32V39ZM15 39V38H14V39H15ZM50 46V47H51V46H50ZM33 46H32V47H33V46ZM50 39H51V38H50V39ZM33 39V38H32V39H33ZM68 46V47H69V46H68ZM51 46H50V47H51V46ZM68 39H69V38H68V39ZM51 39V38H50V39H51ZM86 46V47H87V46H86ZM69 46H68V47H69V46ZM86 39H87V38H86V39ZM69 39V38H68V39H69ZM86 38V39H87V38H86ZM86 31H87V30H86V31ZM69 38H68V39H69V38ZM69 31V30H68V31H69ZM68 38V39H69V38H68ZM68 31H69V30H68V31ZM51 38H50V39H51V38ZM51 31V30H50V31H51ZM50 38V39H51V38H50ZM50 31H51V30H50V31ZM33 38H32V39H33V38ZM33 31V30H32V31H33ZM32 38V39H33V38H32ZM32 31H33V30H32V31ZM15 38H14V39H15V38ZM15 31V30H14V31H15ZM14 38V39H15V38H14ZM14 31H15V30H14V31ZM11 38H10V39H11V38ZM11 31V30H10V31H11ZM86 23H87V22H86V23ZM86 30V31H87V30H86ZM69 23V22H68V23H69ZM69 30H68V31H69V30ZM68 23H69V22H68V23ZM68 30V31H69V30H68ZM51 23V22H50V23H51ZM51 30H50V31H51V30ZM50 23H51V22H50V23ZM50 30V31H51V30H50ZM33 23V22H32V23H33ZM33 30H32V31H33V30ZM33 30V23H31V30H33ZM15 31H32V29H15V31ZM14 23V30H16V23H14ZM32 22H15V24H32V22ZM13 23V30H15V23H13ZM11 24H14V22H11V24ZM12 30V23H10V30H12ZM14 29H11V31H14V29ZM9 23V30H11V23H9ZM9 22V23H11V22H9ZM11 21H10V23H11V21ZM14 21H11V23H14V21ZM15 21H14V23H15V21ZM32 21H15V23H32V21ZM33 21H32V23H33V21ZM50 21H33V23H50V21ZM51 21H50V23H51V21ZM68 21H51V23H68V21ZM69 21H68V23H69V21ZM86 21H69V23H86V21ZM87 21H86V23H87V21ZM88 23V22H86V23H88ZM88 30V23H86V30H88ZM88 31V30H86V31H88ZM88 38V31H86V38H88ZM88 39V38H86V39H88ZM88 46V39H86V46H88ZM88 47V46H86V47H88ZM88 54V47H86V54H88ZM88 55V54H86V55H88ZM88 62V55H86V62H88ZM88 63V62H86V63H88ZM88 70V63H86V70H88ZM88 71V70H86V71H88ZM88 76V71H86V76H88ZM88 77V76H86V77H88ZM86 78H87V76H86V78ZM69 78H86V76H69V78ZM68 78H69V76H68V78ZM51 78H68V76H51V78ZM50 78H51V76H50V78ZM33 78H50V76H33V78ZM32 78H33V76H32V78ZM15 78H32V76H15V78ZM14 78H15V76H14V78ZM11 78H14V76H11V78ZM10 78H11V76H10V78ZM9 76V77H11V76H9ZM9 71V76H11V71H9ZM9 70V71H11V70H9ZM9 63V70H11V63H9ZM9 62V63H11V62H9ZM9 55V62H11V55H9ZM9 54V55H11V54H9ZM9 47V54H11V47H9ZM9 46V47H11V46H9ZM9 39V46H11V39H9ZM9 38V39H11V38H9ZM9 31V38H11V31H9ZM9 30V31H11V30H9ZM14 61H11V63H14V61ZM15 62V55H13V62H15ZM14 54H11V56H14V54ZM10 55V62H12V55H10ZM32 61H15V63H32V61ZM33 62V55H31V62H33ZM32 54H15V56H32V54ZM14 55V62H16V55H14ZM50 61H33V63H50V61ZM51 62V55H49V62H51ZM50 54H33V56H50V54ZM32 55V62H34V55H32ZM68 61H51V63H68V61ZM69 62V55H67V62H69ZM68 54H51V56H68V54ZM50 55V62H52V55H50ZM86 61H69V63H86V61ZM87 62V55H85V62H87ZM86 54H69V56H86V54ZM68 55V62H70V55H68ZM10 71V76H12V71H10ZM11 77H14V75H11V77ZM15 76V71H13V76H15ZM11 72H14V70H11V72ZM16 76V71H14V76H16ZM32 75H15V77H32V75ZM31 71V76H33V71H31ZM15 72H32V70H15V72ZM15 71H32V69H15V71ZM16 70V63H14V70H16ZM32 62H15V64H32V62ZM31 63V70H33V63H31ZM34 76V71H32V76H34ZM50 75H33V77H50V75ZM49 71V76H51V71H49ZM33 72H50V70H33V72ZM33 71H50V69H33V71ZM34 70V63H32V70H34ZM50 62H33V64H50V62ZM49 63V70H51V63H49ZM52 76V71H50V76H52ZM68 75H51V77H68V75ZM67 71V76H69V71H67ZM51 72H68V70H51V72ZM51 71H68V69H51V71ZM52 70V63H50V70H52ZM68 62H51V64H68V62ZM67 63V70H69V63H67ZM70 76V71H68V76H70ZM86 75H69V77H86V75ZM85 71V76H87V71H85ZM69 72H86V70H69V72ZM69 71H86V69H69V71ZM70 70V63H68V70H70ZM86 62H69V64H86V62ZM87 70V63H85V70H87ZM15 70V63H13V70H15ZM11 71H14V69H11V71ZM10 63V70H12V63H10ZM14 62H11V64H14V62ZM87 54V47H85V54H87ZM69 55H86V53H69V55ZM68 47V54H70V47H68ZM86 46H69V48H86V46ZM69 54V47H67V54H69ZM51 55H68V53H51V55ZM50 47V54H52V47H50ZM68 46H51V48H68V46ZM51 54V47H49V54H51ZM33 55H50V53H33V55ZM32 47V54H34V47H32ZM50 46H33V48H50V46ZM33 54V47H31V54H33ZM15 55H32V53H15V55ZM14 47V54H16V47H14ZM32 46H15V48H32V46ZM15 54V47H13V54H15ZM11 55H14V53H11V55ZM10 47V54H12V47H10ZM14 46H11V48H14V46ZM14 45H11V47H14V45ZM13 39V46H15V39H13ZM11 40H14V38H11V40ZM12 46V39H10V46H12ZM32 45H15V47H32V45ZM31 39V46H33V39H31ZM15 40H32V38H15V40ZM16 46V39H14V46H16ZM50 45H33V47H50V45ZM49 39V46H51V39H49ZM33 40H50V38H33V40ZM34 46V39H32V46H34ZM68 45H51V47H68V45ZM67 39V46H69V39H67ZM51 40H68V38H51V40ZM52 46V39H50V46H52ZM86 45H69V47H86V45ZM85 39V46H87V39H85ZM69 40H86V38H69V40ZM70 46V39H68V46H70ZM87 38V31H85V38H87ZM69 39H86V37H69V39ZM68 31V38H70V31H68ZM86 30H69V32H86V30ZM69 38V31H67V38H69ZM51 39H68V37H51V39ZM50 31V38H52V31H50ZM68 30H51V32H68V30ZM51 38V31H49V38H51ZM33 39H50V37H33V39ZM32 31V38H34V31H32ZM50 30H33V32H50V30ZM33 38V31H31V38H33ZM15 39H32V37H15V39ZM14 31V38H16V31H14ZM32 30H15V32H32V30ZM15 38V31H13V38H15ZM11 39H14V37H11V39ZM10 31V38H12V31H10ZM14 30H11V32H14V30ZM85 23V30H87V23H85ZM69 24H86V22H69V24ZM70 30V23H68V30H70ZM86 29H69V31H86V29ZM67 23V30H69V23H67ZM51 24H68V22H51V24ZM52 30V23H50V30H52ZM68 29H51V31H68V29ZM49 23V30H51V23H49ZM33 24H50V22H33V24ZM34 30V23H32V30H34ZM50 29H33V31H50V29Z" fill="black" mask="url(#path-2-inside-1_8_190)"/>
</svg>
