<svg width="120" height="98" viewBox="0 0 120 98" fill="none" xmlns="http://www.w3.org/2000/svg">
<path d="M59.7558 0L119.512 93.75H0L59.7558 0Z" stroke="black" stroke-width="5"/>
<path d="M59.5 12L107 86H12L59.5 12Z" stroke="black"/>
<path d="M63.4038 63.6069H55.6597L54.041 32.5986H65.0225L63.4038 63.6069ZM53.9141 74.4614C53.9141 72.4725 54.4536 71.076 55.5327 70.272C56.633 69.4679 57.9554 69.0659 59.5 69.0659C61.0023 69.0659 62.293 69.4679 63.3721 70.272C64.4723 71.076 65.0225 72.4725 65.0225 74.4614C65.0225 76.3657 64.4723 77.741 63.3721 78.5874C62.293 79.4338 61.0023 79.8569 59.5 79.8569C57.9554 79.8569 56.633 79.4338 55.5327 78.5874C54.4536 77.741 53.9141 76.3657 53.9141 74.4614Z" fill="black"/>
</svg>
