<svg width="41" height="57" viewBox="0 0 41 57" fill="none" xmlns="http://www.w3.org/2000/svg">
<rect x="1" y="1" width="39" height="40" stroke="black" stroke-width="2"/>
<line x1="21" y1="32" x2="21" y2="45" stroke="white" stroke-width="8"/>
<path d="M19.9393 56.0607C20.5251 56.6464 21.4749 56.6464 22.0607 56.0607L31.6066 46.5147C32.1924 45.9289 32.1924 44.9792 31.6066 44.3934C31.0208 43.8076 30.0711 43.8076 29.4853 44.3934L21 52.8787L12.5147 44.3934C11.9289 43.8076 10.9792 43.8076 10.3934 44.3934C9.80761 44.9792 9.80761 45.9289 10.3934 46.5147L19.9393 56.0607ZM19.5 21L19.5 55L22.5 55L22.5 21L19.5 21Z" fill="white"/>
<path d="M19.9393 56.0607C20.5251 56.6464 21.4749 56.6464 22.0607 56.0607L31.6066 46.5147C32.1924 45.9289 32.1924 44.9792 31.6066 44.3934C31.0208 43.8076 30.0711 43.8076 29.4853 44.3934L21 52.8787L12.5147 44.3934C11.9289 43.8076 10.9792 43.8076 10.3934 44.3934C9.80761 44.9792 9.80761 45.9289 10.3934 46.5147L19.9393 56.0607ZM19.5 21L19.5 55L22.5 55L22.5 21L19.5 21Z" fill="black"/>
<circle cx="21" cy="20" r="7" fill="white" stroke="black" stroke-width="2"/>
</svg>
