<svg width="67" height="87" viewBox="0 0 67 87" fill="none" xmlns="http://www.w3.org/2000/svg">
<path d="M48.5827 58.5912L47.9999 58.8588V59.5V86H23.1778L26.9867 62.827L27.1977 61.5434L25.9029 61.6696C23.2589 61.9273 21.122 62.1072 19.3604 61.9601C17.626 61.8154 16.3731 61.3614 15.4187 60.4417C14.4457 59.504 13.656 57.9611 13.1203 55.3744C12.5854 52.7913 12.3247 49.273 12.3247 44.5V43.5H11.3247H1.73716L12.1894 25.5022L12.3247 25.2693V25C12.3247 9.73169 26.1159 1 38.4999 1C53.5552 1 65.9999 15.1842 65.9999 33C65.9999 39.7745 64.1918 44.9745 61.1515 49.0624C58.1008 53.1642 53.7579 56.2152 48.5827 58.5912Z" stroke="black" stroke-width="2"/>
</svg>
