<svg width="45" height="45" viewBox="0 0 45 45" fill="none" xmlns="http://www.w3.org/2000/svg">
<path d="M43.6764 25.2014L38.1764 28.1629V27.9135L37.4515 28.2785L37.4051 28.3018L37.0451 28.4831L37.1106 28.7368L37.1458 28.8734L37.1923 29.0532L37.2085 29.1163L38.8722 35.5604L34.9065 39.2296L28.86 37.1567L28.6778 37.0942L28.5007 37.1702C28.2539 37.2761 28.004 37.3762 27.7511 37.4702L27.582 37.5331L27.492 37.6896L26.442 39.5156L26.4418 39.5156L26.4352 39.5278L24.2014 43.6764H18.7986L15.5281 37.6025L15.6063 37.2157L15.5457 37.19L15.3895 37.1236L15.2847 37.1506L15.2251 37.166L15.1234 37.1922L14.9053 37.2485L8.61595 38.8722L4.94678 34.9065L6.94222 29.086L7.00606 28.8997L6.9258 28.72C6.78392 28.4022 6.6518 28.0792 6.52982 27.7512L6.46691 27.582L6.31043 27.492L1.8872 24.9485L1.88729 24.9483L1.875 24.9417L0.500002 24.2014L0.5 18.7986L6.52594 15.5539L6.87097 15.3681L6.77302 14.9887L5.12783 8.61597L9.09348 4.94678L14.914 6.94222L15.1002 7.00606L15.28 6.92581C15.6607 6.75587 16.0489 6.59992 16.4442 6.4586L16.625 6.39394L16.716 6.22484L19.7986 0.5H25.2013L25.202 0.501198L25.3392 0.756019L25.3653 0.756738L25.7271 1.47601L25.7269 1.4761L25.7336 1.48839L28.4676 6.56591L28.6534 6.91094L29.0328 6.81298L35.5604 5.12781L39.2296 9.0935L37.1567 15.14L37.0942 15.3222L37.1702 15.4993C37.2874 15.7724 37.3974 16.0492 37.5 16.3297L37.5653 16.508L37.7325 16.5981L43.6764 19.7986V25.2014Z" stroke="black"/>
<circle cx="22" cy="22" r="7" fill="white" stroke="black" stroke-width="2"/>
</svg>
