<svg width="100" height="100" viewBox="0 0 100 100" fill="none" xmlns="http://www.w3.org/2000/svg">
<rect x="0.5" y="0.5" width="99" height="99" stroke="black"/>
<line x1="49.416" y1="32.2774" x2="37.416" y2="50.2774" stroke="black"/>
<line x1="62.584" y1="50.2773" x2="50.584" y2="32.2773" stroke="black"/>
<circle cx="50" cy="33" r="5" fill="white" stroke="black" stroke-width="2"/>
<circle cx="62" cy="50" r="5" fill="white" stroke="black" stroke-width="2"/>
<circle cx="37" cy="50" r="5" fill="white" stroke="black" stroke-width="2"/>
<line x1="49.416" y1="32.2774" x2="37.416" y2="50.2774" stroke="black"/>
<line x1="62.584" y1="50.2773" x2="50.584" y2="32.2773" stroke="black"/>
<circle cx="50" cy="33" r="5" fill="white" stroke="black" stroke-width="2"/>
<circle cx="62" cy="50" r="5" fill="white" stroke="black" stroke-width="2"/>
<circle cx="37" cy="50" r="5" fill="white" stroke="black" stroke-width="2"/>
<line x1="61.416" y1="49.2774" x2="49.416" y2="67.2774" stroke="black"/>
<line x1="74.584" y1="67.2773" x2="62.584" y2="49.2773" stroke="black"/>
<circle cx="62" cy="50" r="5" fill="white" stroke="black" stroke-width="2"/>
<circle cx="74" cy="67" r="5" fill="white" stroke="black" stroke-width="2"/>
<circle cx="49" cy="67" r="5" fill="white" stroke="black" stroke-width="2"/>
<line x1="36.416" y1="49.2774" x2="24.416" y2="67.2774" stroke="black"/>
<line x1="49.584" y1="67.2773" x2="37.584" y2="49.2773" stroke="black"/>
<circle cx="37" cy="50" r="5" fill="white" stroke="black" stroke-width="2"/>
<circle cx="49" cy="67" r="5" fill="white" stroke="black" stroke-width="2"/>
<circle cx="24" cy="67" r="5" fill="white" stroke="black" stroke-width="2"/>
<line x1="50.4999" y1="6" x2="50.4999" y2="19" stroke="black"/>
<line x1="56.3721" y1="12.3339" x2="50.1674" y2="19.2507" stroke="black"/>
<line x1="50.832" y1="19.2508" x2="44.6278" y2="12.3337" stroke="black"/>
<line x1="49.4999" y1="81" x2="49.4999" y2="94" stroke="black"/>
<line x1="55.3721" y1="87.3339" x2="49.1674" y2="94.2507" stroke="black"/>
<line x1="49.832" y1="94.2508" x2="43.6278" y2="87.3337" stroke="black"/>
<rect x="16.5" y="19.5" width="65" height="61" stroke="black"/>
</svg>
